# xmcd
#
# Track frame offsets:
#	150
#	44803
#	80563
#	141592
#	180466
#	234311
#	259265
#
# Disc length: 4033 seconds
#
# Revision: 3
# Processed by: cddbd v1.4PL0 Copyright (c) Steve Scherf et al.
# Submitted via: dBpowerAMP V4.0
#
DISCID=630fbf07
DTITLE=Bubba George Stringband - Live at Finger Lakes Grassroots Festival of Music and Dance
DYEAR=1998
DGENRE=Oldtime
TTITLE0=Cumberland Gap
TTITLE1=Sally Anne
TTITLE2=Jeb's Tune
TTITLE3=Jenny on the Railroad
TTITLE4=Elzic's Farewell
TTITLE5=Fiddler's Dram
TTITLE6=Galax Waltz
EXTD=
EXTT0=
EXTT1=
EXTT2=
EXTT3=
EXTT4=
EXTT5=
EXTT6=
PLAYORDER=
